<?xml version="1.0" standalone="no"?><!DOCTYPE svg PUBLIC "-//W3C//DTD SVG 1.1//EN" "http://www.w3.org/Graphics/SVG/1.1/DTD/svg11.dtd"><svg t="1726643898589" class="icon" viewBox="0 0 1024 1024" version="1.1" xmlns="http://www.w3.org/2000/svg" p-id="1690" xmlns:xlink="http://www.w3.org/1999/xlink" width="200" height="200"><path d="M512 51.2c-254.464 0-460.8 206.336-460.8 460.8s206.336 460.8 460.8 460.8 460.8-206.336 460.8-460.8-206.336-460.8-460.8-460.8z m280.064 740.864c-74.24 74.24-175.104 116.224-280.064 115.712-104.96 0-205.824-41.472-280.064-115.712S115.712 616.96 115.712 512s41.472-205.824 116.224-280.064C306.176 157.696 407.04 115.712 512 116.224c104.96 0 205.824 41.472 280.064 116.224 74.24 74.24 116.224 175.104 115.712 280.064 0.512 104.448-41.472 205.312-115.712 279.552z" p-id="1691" fill="#ffffff"></path><path d="M820.736 568.32H495.104c-16.384 0-29.184-13.312-29.184-29.184v-2.56c0-16.384 13.312-29.184 29.184-29.184h325.12c16.384 0 29.696 13.312 29.696 29.184v2.56c0 15.872-13.312 29.184-29.184 29.184z" p-id="1692" fill="#ffffff"></path><path d="M527.36 213.504v325.12c0 15.872-13.312 29.184-29.184 29.184h-2.56c-15.872 0-29.184-13.312-29.184-29.184V213.504c0-15.872 13.312-29.184 29.184-29.184h2.56c15.872 0 29.184 13.312 29.184 29.184z" p-id="1693" fill="#ffffff"></path></svg>